<svg xmlns="http://www.w3.org/2000/svg" viewBox="0 0 511.999 511.999"><path fill="#d49000" d="M477.317 160.58H204.443c-2.297-12.248-13.09-21.598-25.978-21.598H117.85c-12.89 0-23.681 9.35-25.98 21.598H71.129c-14.546 0-26.448 11.902-26.448 26.448v238.723c0 14.546 11.902 26.448 26.448 26.448h406.187c14.546 0 26.448-11.902 26.448-26.448V187.028c.001-14.546-11.901-26.448-26.447-26.448z"/><path fill="#76531c" d="M44.681 203.297V425.75c0 14.546 11.902 26.448 26.448 26.448h406.187c14.546 0 26.448-11.902 26.448-26.448V203.297H44.681z" opacity=".3"/><path fill="#e0e0d3" d="M141.329 59.805h282.659v302.576H141.329z"/><path fill="#5c6670" d="M381.667 133.648H183.64a8.234 8.234 0 0 1-8.235-8.235 8.234 8.234 0 0 1 8.235-8.235h198.027a8.234 8.234 0 0 1 8.235 8.235 8.234 8.234 0 0 1-8.235 8.235zm0 46.531h-60.894a8.234 8.234 0 0 1-8.235-8.235 8.234 8.234 0 0 1 8.235-8.235h60.894a8.234 8.234 0 0 1 8.235 8.235 8.234 8.234 0 0 1-8.235 8.235zm-90.537 0H183.641a8.234 8.234 0 0 1-8.235-8.235 8.234 8.234 0 0 1 8.235-8.235H291.13a8.234 8.234 0 0 1 8.235 8.235 8.236 8.236 0 0 1-8.235 8.235z"/><path fill="#ffc843" d="M467.704 247.99c-2.529-14.325-16.501-26.045-31.047-26.045H30.468c-14.546 0-24.376 11.72-21.847 26.045l31.461 178.164c2.531 14.324 16.501 26.045 31.047 26.045h406.187c14.546 0 24.376-11.721 21.847-26.045L467.704 247.99z"/><path fill="#1e252b" d="M477.317 152.346h-45.1V59.8a8.234 8.234 0 0 0-8.235-8.235H141.324a8.235 8.235 0 0 0-8.235 8.235v70.948H117.85c-14.291 0-26.864 8.757-32.098 21.598H71.129c-19.124 0-34.682 15.558-34.682 34.682v26.683h-5.978c-9.372 0-17.987 3.86-23.634 10.591-5.647 6.732-7.953 15.887-6.323 25.12l31.461 178.165c3.199 18.112 20.765 32.847 39.157 32.847h406.187c19.124 0 34.682-15.558 34.682-34.682V187.028c.001-19.124-15.557-34.682-34.682-34.682zM149.558 68.034h266.19V213.71h-266.19V68.034zM52.916 187.028c0-10.042 8.17-18.213 18.213-18.213h20.742a8.235 8.235 0 0 0 8.093-6.715c1.619-8.623 9.141-14.883 17.887-14.883h15.239v66.494H52.916v-26.683zm435.418 252.228c-1.902 2.266-4.564 3.771-7.689 4.389-.152.029-.305.046-.458.07-.368.061-.736.122-1.114.16-.579.056-1.164.089-1.757.089H71.129c-10.591 0-21.096-8.812-22.939-19.242L16.73 246.56c-.793-4.49.173-8.635 2.722-11.671 2.546-3.036 6.459-4.707 11.017-4.707h406.187c10.592 0 21.097 8.811 22.939 19.242l31.461 178.163c.792 4.488-.174 8.633-2.722 11.669zm7.196-81.039L475.813 246.56c-3.196-18.113-20.762-32.848-39.157-32.848h-4.439v-44.896h45.1c10.042 0 18.213 8.17 18.213 18.213v171.188z"/></svg>