<svg xmlns="http://www.w3.org/2000/svg" width="48" height="48"><path fill="transparent" d="M0 0h48v48H0z"/><path fill="#0082CA" d="M24 47.233c12.831 0 23.233-10.402 23.233-23.233C47.233 11.168 36.831.766 24 .766 11.168.766.766 11.168.766 24 .766 36.83 11.168 47.233 24 47.233z"/><path fill="#FFF" d="M19.282 8.268c-1.84-.2-3.936-.08-6.403 2.128-2.468 2.208-4.194 8.591.591 18.392 4.693 9.612 9.722 12.1 14.198 12.033 3.637-.055 6.04-2.036 6.315-2.588.275-.552.635-1.033-.222-1.995-.856-.962-3.32-3.72-3.778-4.187-.458-.466-.992-1.435-2.178-.873-.912.436-1.837.846-2.773 1.228-.564.224-2.761 1.159-6.158-5.61-3.396-6.77-2.27-7.234-1.218-7.648 1.05-.413 1.912-.744 2.32-1.046.408-.302.867-.577.85-1.43-.017-.853-.078-7.043-.083-7.38-.005-.336-.386-.907-1.46-1.024z"/><path fill="#FFC843" d="M34.318 31.373a.766.766 0 0 1-.532-1.318 11.097 11.097 0 0 0 3.143-5.615c.487-2.201.294-4.47-.558-6.56a11.002 11.002 0 0 0-4.187-5.083 11.075 11.075 0 0 0-6.173-1.819h-.005A.766.766 0 0 1 26 9.446c2.494-.02 4.938.7 7.023 2.068a12.528 12.528 0 0 1 4.768 5.787c.97 2.38 1.19 4.964.634 7.47a12.621 12.621 0 0 1-3.576 6.388.762.762 0 0 1-.531.214z"/><path fill="#FFC843" d="M31.453 28.394a.767.767 0 0 1-.531-1.319 6.922 6.922 0 0 0 1.623-7.636A6.923 6.923 0 0 0 26.1 15.11h-.059a.766.766 0 1 1 .06-1.533 8.448 8.448 0 0 1 7.863 5.283 8.448 8.448 0 0 1-1.98 9.32.764.764 0 0 1-.53.214z"/><path fill="#FFC843" d="M28.646 25.36a.766.766 0 0 1-.543-1.307 2.815 2.815 0 0 0 .615-3.055 2.805 2.805 0 0 0-2.611-1.756h-.03a.767.767 0 0 1-.007-1.533h.037a4.331 4.331 0 0 1 4.03 2.71 4.343 4.343 0 0 1-.948 4.716.76.76 0 0 1-.543.225z"/><path fill="#1E252B" d="M24 48a23.843 23.843 0 0 1-16.97-7.03A23.842 23.842 0 0 1 0 24c0-6.41 2.496-12.438 7.03-16.97A23.843 23.843 0 0 1 24 0c6.41 0 12.438 2.497 16.97 7.03A23.843 23.843 0 0 1 48 24c0 6.41-2.496 12.438-7.03 16.97A23.842 23.842 0 0 1 24 48zm0-46.467a22.322 22.322 0 0 0-15.887 6.58A22.322 22.322 0 0 0 1.533 24a22.322 22.322 0 0 0 6.58 15.887A22.318 22.318 0 0 0 24 46.467a22.318 22.318 0 0 0 15.887-6.58A22.318 22.318 0 0 0 46.467 24a22.318 22.318 0 0 0-6.58-15.887A22.322 22.322 0 0 0 24 1.533z"/></svg>