<svg xmlns="http://www.w3.org/2000/svg" viewBox="0 0 512.001 512.001"><path fill="#333e48" d="M196.228 365.121h119.534v58.639H196.228z"/><path d="M196.228 365.121h119.534v26.016H196.228z" opacity=".2"/><path fill="#5c6670" d="M347.663 457.859c10.351 0 18.741-8.389 18.741-18.739 0-10.352-8.39-18.741-18.741-18.741H164.336c-10.35 0-18.74 8.389-18.74 18.741 0 10.35 8.39 18.739 18.74 18.739h183.327z"/><path fill="#333e48" d="M503.542 76.695c0-12.404-10.149-22.554-22.554-22.554H31.011c-12.404 0-22.554 10.149-22.554 22.554v275.41c0 12.405 10.149 22.554 22.554 22.554h449.978c12.405 0 22.554-10.149 22.554-22.554V76.695z"/><path fill="#fff" d="M42.288 87.97h427.425v252.86H42.288z"/><path fill="#333e48" d="M310.849 142.137H75.476c-4.672 0-8.458-3.786-8.458-8.458s3.787-8.458 8.458-8.458H310.85c4.672 0 8.458 3.786 8.458 8.458s-3.787 8.458-8.459 8.458zm0 36.704H75.476a8.457 8.457 0 0 1-8.458-8.458 8.458 8.458 0 0 1 8.458-8.458H310.85a8.457 8.457 0 0 1 8.458 8.458 8.46 8.46 0 0 1-8.459 8.458zm0 36.704H75.476a8.457 8.457 0 0 1-8.458-8.458 8.458 8.458 0 0 1 8.458-8.458H310.85a8.457 8.457 0 0 1 8.458 8.458 8.46 8.46 0 0 1-8.459 8.458zm125.667 36.704H172.752a8.457 8.457 0 0 1-8.458-8.458 8.457 8.457 0 0 1 8.458-8.458h263.765a8.457 8.457 0 0 1 8.458 8.458 8.46 8.46 0 0 1-8.459 8.458zm0 36.702H172.752a8.457 8.457 0 0 1-8.458-8.458 8.457 8.457 0 0 1 8.458-8.458h263.765a8.459 8.459 0 0 1-.001 16.916z"/><path fill="#0055b8" d="M359.46 133.675h73.412v73.412H359.46z"/><path fill="#0082ca" d="M75.476 243.793h66.453v36.704H75.476z"/><path fill="#5c6670" d="M8.458 329.681v22.424c0 12.405 10.149 22.554 22.554 22.554H480.99c12.405 0 22.554-10.149 22.554-22.554v-22.424H8.458z"/><g fill="#1e252b"><circle cx="255.995" cy="353.291" r="9.021"/><path d="M480.989 45.684H31.011C13.912 45.684 0 59.595 0 76.695v275.41c0 17.1 13.912 31.011 31.011 31.011h156.763v28.807h-23.439c-14.997 0-27.197 12.2-27.197 27.199 0 14.996 12.2 27.196 27.197 27.196h183.327c14.998 0 27.199-12.2 27.199-27.196 0-14.998-12.2-27.199-27.199-27.199h-23.439v-28.807H480.99c17.099 0 31.011-13.911 31.011-31.011V76.695c-.001-17.1-13.913-31.011-31.012-31.011zM347.663 428.837c5.67 0 10.283 4.613 10.283 10.283 0 5.669-4.613 10.281-10.283 10.281H164.336c-5.669 0-10.282-4.612-10.282-10.281 0-5.67 4.613-10.283 10.282-10.283h183.327zM204.69 411.922v-28.807h102.619v28.807H204.69zm290.395-59.818c0 7.772-6.323 14.096-14.096 14.096H31.011c-7.773 0-14.096-6.324-14.096-14.096v-13.966h478.17v13.966zm0-30.881H16.915V76.695c0-7.773 6.323-14.096 14.096-14.096h449.978c7.773 0 14.096 6.323 14.096 14.096v244.528z"/></g></svg>