<svg xmlns="http://www.w3.org/2000/svg" viewBox="0 0 511.999 511.999"><path fill="#333e48" d="M355.346 488.664c0-95.812-77.671-173.484-173.483-173.484-95.814 0-173.485 77.672-173.485 173.484h346.968z"/><g fill="#fff"><path d="m219.393 357.518-37.531 71.702-37.53-71.702z"/><path d="m238.761 324.738 2.562 33.924-59.461 23.142-59.461-23.142 2.562-33.924z"/></g><path fill="#ffbf9e" d="M181.862 315.18c-19.932 0-39.072 3.372-56.899 9.559l56.899 56.899 56.899-56.899c-17.826-6.187-36.966-9.559-56.899-9.559z"/><path d="M181.862 315.18c-25.537 0-49.782 5.52-71.614 15.428 21.684 10.383 45.968 16.202 71.614 16.202s49.93-5.819 71.613-16.202c-21.831-9.908-46.077-15.428-71.613-15.428z" opacity=".1"/><circle cx="181.861" cy="180.788" r="157.453" fill="#ffbf9e"/><path fill="#c29178" d="M280.808 182.582c10.818 0 19.586 8.77 19.586 19.586 0 10.819-8.769 19.587-19.586 19.587h-22.263c-10.818 0-19.586-8.769-19.586-19.587 0-10.817 8.769-19.586 19.586-19.586h22.263z"/><path fill="#333e48" d="M181.862 23.335c-86.961 0-157.455 70.495-157.455 157.454 0 18.133 3.074 35.545 8.715 51.756 66.785-23.262 119.53-76.49 142.124-143.587 32.292 25.271 72.956 40.338 117.14 40.338 12.666 0 25.036-1.249 37.01-3.609-22.339-59.782-79.961-102.352-147.534-102.352z"/><path fill="#ffbf9e" d="M92.294 169.466c-17.246 0-31.226 13.98-31.226 31.226s13.98 31.227 31.226 31.227v-62.453z"/><path fill="#e0e0d3" d="M327.419 352.641v118.861c0 9.439 7.724 17.162 17.163 17.162h102.976c9.439 0 17.163-7.722 17.163-17.162V352.641H327.419z"/><ellipse cx="396.073" cy="418.035" fill="#c29178" rx="27.398" ry="39.81"/><path fill="#1e252b" d="M429.873 336.549a8.378 8.378 0 0 0 0-16.756c-7.155 0-12.976-5.821-12.976-12.976 0-7.155 5.821-12.976 12.976-12.976 16.394 0 29.732-13.338 29.732-29.733 0-16.394-13.338-29.732-29.732-29.732a8.378 8.378 0 0 0 0 16.756c7.155 0 12.976 5.821 12.976 12.976 0 7.156-5.821 12.977-12.976 12.977-16.394 0-29.732 13.338-29.732 29.732s13.338 29.732 29.732 29.732zm-60.057-59.465c-16.394 0-29.732 13.338-29.732 29.732s13.338 29.732 29.732 29.732a8.378 8.378 0 0 0 0-16.756c-7.155 0-12.976-5.821-12.976-12.976 0-7.155 5.821-12.976 12.976-12.976 16.394 0 29.732-13.338 29.732-29.733 0-16.394-13.338-29.732-29.732-29.732a8.378 8.378 0 0 0 0 16.756c7.155 0 12.976 5.821 12.976 12.976 0 7.156-5.821 12.977-12.976 12.977zM205.479 172.686c6.584 0 11.922-5.337 11.922-11.922 0-6.585-5.337-11.922-11.922-11.922-6.583 0-11.923 5.336-11.923 11.922.001 6.585 5.34 11.922 11.923 11.922zm267.62 201.499v-21.544a8.378 8.378 0 0 0-8.378-8.378H327.419a8.378 8.378 0 0 0-8.378 8.378v16.661c-15.782-18.073-35.084-32.996-56.526-43.659 50.771-28.382 85.181-82.67 85.181-144.853 0-91.44-74.392-165.832-165.832-165.832-91.441 0-165.833 74.392-165.833 165.832 0 62.18 34.406 116.467 85.174 144.85-27.062 13.376-50.339 33.237-67.986 58.221C11.486 414.629 0 450.869 0 488.664a8.378 8.378 0 0 0 8.378 8.378h439.178c14.083 0 25.541-11.457 25.541-25.54v-4.273c22.086-3.968 38.901-23.311 38.901-46.522.002-23.212-16.813-42.554-38.899-46.522zM43.985 237.458a238.11 238.11 0 0 0 20.14-8.96c7.185 7.279 17.157 11.8 28.168 11.8a8.378 8.378 0 0 0 0-16.756c-12.598 0-22.848-10.25-22.848-22.849s10.249-22.848 22.848-22.848a8.378 8.378 0 0 0 0-16.756c-21.838 0-39.604 17.766-39.604 39.604 0 4.772.849 9.35 2.403 13.59a221.03 221.03 0 0 1-16.62 7.345 148.688 148.688 0 0 1-5.687-40.838c0-82.201 66.875-149.076 149.077-149.076 60.239 0 112.245 35.915 135.735 87.457a183.38 183.38 0 0 1-25.211 1.748c-41.023 0-79.743-13.334-111.977-38.558a8.378 8.378 0 0 0-13.103 3.924c-13.957 41.449-39.72 77.576-74.502 104.474a8.377 8.377 0 0 0-1.502 11.753 8.365 8.365 0 0 0 6.633 3.254c1.79 0 3.594-.572 5.12-1.75 34.377-26.584 60.563-61.557 76.234-101.66 33.271 23.147 72.135 35.321 113.097 35.321a200.48 200.48 0 0 0 31.408-2.491 148.535 148.535 0 0 1 7.145 45.606c0 82.202-66.875 149.077-149.076 149.077-62.15-.002-115.529-38.235-137.878-92.411zm188.518 115.646-16.796 6.537 16.079-16.079.717 9.542zm-50.641 16.685-25.058-25.057a166.467 166.467 0 0 0 25.058 1.891c8.517 0 16.884-.647 25.058-1.891l-25.058 25.057zm19.402 4.295-19.403 37.069-19.404-37.072 13.48 13.48c1.635 1.635 3.78 2.454 5.924 2.454s4.288-.818 5.924-2.454l13.479-13.477zm-53.246-14.443-16.798-6.538.717-9.543 16.081 16.081zM16.964 480.285c1.556-31.277 11.828-61.113 29.94-86.757 17.52-24.807 41.146-44.048 68.691-56.109l-1.548 20.616a8.378 8.378 0 0 0 5.316 8.435l25.366 9.872 29.71 56.764a8.376 8.376 0 0 0 14.846 0l29.71-56.764 25.366-9.872a8.378 8.378 0 0 0 5.316-8.435l-1.547-20.601c28.572 12.572 53.436 33.351 70.91 59.376v74.692c0 3.085.55 6.043 1.557 8.784l-303.633-.001zm439.378-8.783c0 4.844-3.941 8.784-8.785 8.784H344.581c-4.845 0-8.785-3.94-8.785-8.784V361.019h120.546v110.483zm16.757-21.45v-58.69c12.768 3.652 22.145 15.42 22.145 29.345 0 13.925-9.377 25.694-22.145 29.345zM304.576 172.686c6.583 0 11.922-5.337 11.922-11.922 0-6.585-5.337-11.922-11.922-11.922-6.585 0-11.923 5.336-11.923 11.922.001 6.585 5.339 11.922 11.923 11.922z"/></svg>